<svg xmlns="http://www.w3.org/2000/svg" width="1200" height="680" viewBox="0 0 1200 680">
  <rect width="1200" height="680" fill="#f5f7f9"/>
  <rect x="34" y="34" width="1132" height="612" rx="18" fill="#ffffff" stroke="#d8e0e7"/>
  <text x="64" y="88" font-family="Arial, sans-serif" font-size="20" font-weight="760" fill="#0f766e">Paper Radar Reading Note</text>
  <text x="64" y="126" font-family="Arial, sans-serif" font-size="14" fill="#64717d">2026-07-21 / Jolia Concept-Level Vision-Language Alignment.pdf</text>
  <g font-family="Arial, sans-serif">
    <text x="64" y="182" font-size="32" font-weight="780" fill="#172026">Jolia: Concept-Level Vision-Language Alignment for 3D</text>
<text x="64" y="222" font-size="32" font-weight="780" fill="#172026">CT Contrastive Learning</text>
    <rect x="64" y="292" width="288" height="38" rx="8" fill="#0b5cad" opacity="0.12"/><text x="78" y="317" font-size="18" font-weight="700" fill="#0b5cad">Foundation / VLM</text><rect x="366" y="292" width="288" height="38" rx="8" fill="#0f766e" opacity="0.12"/><text x="380" y="317" font-size="18" font-weight="700" fill="#0f766e">Learning Methods</text>
    <rect x="64" y="388" width="238" height="112" rx="10" fill="#ffffff" stroke="#d8e0e7"/><text x="82" y="424" font-size="17" font-weight="760" fill="#172026">Question</text><text x="82" y="458" font-size="14" font-weight="520" fill="#64717d">Jolia: Concept-Level</text>
<text x="82" y="480" font-size="14" font-weight="520" fill="#64717d">Vision-Language</text><path d="M 310 444 L 330 444" stroke="#0f766e" stroke-width="3"/><path d="M 330 444 L 322 437 M 330 444 L 322 451" stroke="#0f766e" stroke-width="3" fill="none"/><rect x="338" y="388" width="238" height="112" rx="10" fill="#ffffff" stroke="#d8e0e7"/><text x="356" y="424" font-size="17" font-weight="760" fill="#172026">Modality</text><text x="356" y="458" font-size="14" font-weight="520" fill="#64717d">CT</text><path d="M 584 444 L 604 444" stroke="#0f766e" stroke-width="3"/><path d="M 604 444 L 596 437 M 604 444 L 596 451" stroke="#0f766e" stroke-width="3" fill="none"/><rect x="612" y="388" width="238" height="112" rx="10" fill="#ffffff" stroke="#d8e0e7"/><text x="630" y="424" font-size="17" font-weight="760" fill="#172026">Method</text><text x="630" y="458" font-size="14" font-weight="520" fill="#64717d">transformer,</text>
<text x="630" y="480" font-size="14" font-weight="520" fill="#64717d">foundation model,</text><path d="M 858 444 L 878 444" stroke="#0f766e" stroke-width="3"/><path d="M 878 444 L 870 437 M 878 444 L 870 451" stroke="#0f766e" stroke-width="3" fill="none"/><rect x="886" y="388" width="238" height="112" rx="10" fill="#ffffff" stroke="#d8e0e7"/><text x="904" y="424" font-size="17" font-weight="760" fill="#172026">Use</text><text x="904" y="458" font-size="14" font-weight="520" fill="#64717d">idea screening /</text>
<text x="904" y="480" font-size="14" font-weight="520" fill="#64717d">follow-up reading</text>
    <rect x="64" y="548" width="1072" height="58" rx="10" fill="#e8f1fb"/>
    <text x="86" y="582" font-size="16" font-weight="560" fill="#33414d">这篇论文围绕“Jolia: Concept-Level Vision-Language Alignment for 3D CT Contrastive Learning”，核心线索是：Vision-language</text>
<text x="86" y="606" font-size="16" font-weight="560" fill="#33414d">contrastive pretraining has become the dominant recipe for 3D medical foundation models, leveraging the large</text>
  </g>
</svg>
