<svg xmlns="http://www.w3.org/2000/svg" width="1200" height="680" viewBox="0 0 1200 680">
  <rect width="1200" height="680" fill="#f5f7f9"/>
  <rect x="34" y="34" width="1132" height="612" rx="18" fill="#ffffff" stroke="#d8e0e7"/>
  <text x="64" y="88" font-family="Arial, sans-serif" font-size="20" font-weight="760" fill="#0f766e">Paper Radar Reading Note</text>
  <text x="64" y="126" font-family="Arial, sans-serif" font-size="14" fill="#64717d">2026-07-21 / Genetically-influenced multi-scale brain organization via self-supervised learning.pdf</text>
  <g font-family="Arial, sans-serif">
    <text x="64" y="182" font-size="32" font-weight="780" fill="#172026">Genetically-influenced multi-scale brain organization</text>
<text x="64" y="222" font-size="32" font-weight="780" fill="#172026">via self-supervised learning</text>
    <rect x="64" y="292" width="216" height="38" rx="8" fill="#0b5cad" opacity="0.12"/><text x="78" y="317" font-size="18" font-weight="700" fill="#0b5cad">Neuroimaging</text><rect x="294" y="292" width="234" height="38" rx="8" fill="#0f766e" opacity="0.12"/><text x="308" y="317" font-size="18" font-weight="700" fill="#0f766e">AD / Dementia</text><rect x="542" y="292" width="288" height="38" rx="8" fill="#8a4b0f" opacity="0.12"/><text x="556" y="317" font-size="18" font-weight="700" fill="#8a4b0f">Foundation / VLM</text><rect x="844" y="292" width="234" height="38" rx="8" fill="#5b5f97" opacity="0.12"/><text x="858" y="317" font-size="18" font-weight="700" fill="#5b5f97">Generative AI</text>
    <rect x="64" y="388" width="238" height="112" rx="10" fill="#ffffff" stroke="#d8e0e7"/><text x="82" y="424" font-size="17" font-weight="760" fill="#172026">Question</text><text x="82" y="458" font-size="14" font-weight="520" fill="#64717d">Genetically-influenced</text>
<text x="82" y="480" font-size="14" font-weight="520" fill="#64717d">multi-scale brain org</text><path d="M 310 444 L 330 444" stroke="#0f766e" stroke-width="3"/><path d="M 330 444 L 322 437 M 330 444 L 322 451" stroke="#0f766e" stroke-width="3" fill="none"/><rect x="338" y="388" width="238" height="112" rx="10" fill="#ffffff" stroke="#d8e0e7"/><text x="356" y="424" font-size="17" font-weight="760" fill="#172026">Modality</text><text x="356" y="458" font-size="14" font-weight="520" fill="#64717d">MRI, neuroimaging</text><path d="M 584 444 L 604 444" stroke="#0f766e" stroke-width="3"/><path d="M 604 444 L 596 437 M 604 444 L 596 451" stroke="#0f766e" stroke-width="3" fill="none"/><rect x="612" y="388" width="238" height="112" rx="10" fill="#ffffff" stroke="#d8e0e7"/><text x="630" y="424" font-size="17" font-weight="760" fill="#172026">Method</text><text x="630" y="458" font-size="14" font-weight="520" fill="#64717d">contrastive, self-</text>
<text x="630" y="480" font-size="14" font-weight="520" fill="#64717d">supervised, deep</text><path d="M 858 444 L 878 444" stroke="#0f766e" stroke-width="3"/><path d="M 878 444 L 870 437 M 878 444 L 870 451" stroke="#0f766e" stroke-width="3" fill="none"/><rect x="886" y="388" width="238" height="112" rx="10" fill="#ffffff" stroke="#d8e0e7"/><text x="904" y="424" font-size="17" font-weight="760" fill="#172026">Use</text><text x="904" y="458" font-size="14" font-weight="520" fill="#64717d">idea screening /</text>
<text x="904" y="480" font-size="14" font-weight="520" fill="#64717d">follow-up reading</text>
    <rect x="64" y="548" width="1072" height="58" rx="10" fill="#e8f1fb"/>
    <text x="86" y="582" font-size="16" font-weight="560" fill="#33414d">这篇论文围绕“Genetically-influenced multi-scale brain organization via self-supervised learning”，核心线索是：Understanding how</text>
<text x="86" y="606" font-size="16" font-weight="560" fill="#33414d">genetic variation shapes brain struc- ture is a central goal of imaging-genetics research</text>
  </g>
</svg>
